# xmcd
#
# Track frame offsets:
#	150
#	14659
#	32768
#	40315
#	49134
#	63397
#	73235
#	86495
#	98435
#	109998
#	127526
#	140831
#	155815
#	169668
#	180971
#
# Disc length: 2584 seconds
#
# Revision: 1
# Processed by: cddbd v1.5.2PL0 Copyright (c) Steve Scherf et al.
# Submitted via: audiograbber 1.83.01
#
DISCID=ca0a160f
DTITLE=Various Artist - A Whole Lotta Country Volume 5
DYEAR=1900
DGENRE=Country
TTITLE0=The Highwaymen - The Devil's Right Hand
TTITLE1=James Blundell and James Reyne - Way Out West
TTITLE2=Johnny Cash - Come In Stranger
TTITLE3=Faron Young - Goin' Steady
TTITLE4=Tex Ritter - Streets Of Laredo
TTITLE5=Billy Crash Craddock - Rub It In
TTITLE6=Billy Dean - The Mountain Moved
TTITLE7=Crystal Gayle - Don't It Make My Brown Eyes Blue
TTITLE8=Glen Campbell and Bobby Gentry - All I Have To Do Is Dream
TTITLE9=Marie Osmond and Dan Seals - Meet Me In Montana
TTITLE10=Merle Haggard and The Strangers - Cherokee Maiden
TTITLE11=(Pirates Of The Mississippi) - Fighting For You
TTITLE12=Tennessee Ernie Ford - Mule Train
TTITLE13=Chris LeDoux - Under This Old Hat
TTITLE14=Willie Nelson - Crazy
EXTD=
EXTT0=
EXTT1=
EXTT2=
EXTT3=
EXTT4=
EXTT5=
EXTT6=
EXTT7=
EXTT8=
EXTT9=
EXTT10=
EXTT11=
EXTT12=
EXTT13=
EXTT14=
PLAYORDER=
